<svg xmlns="http://www.w3.org/2000/svg" width="94.604" height="94.604" viewBox="0 0 94.604 94.604">
  <g id="Grupo_283" data-name="Grupo 283" transform="translate(-3401.914 -931.819)">
    <circle id="Elipse_12" data-name="Elipse 12" cx="47.302" cy="47.302" r="47.302" transform="translate(3401.914 931.819)" fill="#e12144"/>
    <g id="Grupo_135" data-name="Grupo 135">
      <g id="Grupo_134" data-name="Grupo 134">
        <g id="Grupo_133" data-name="Grupo 133">
          <path id="Trazado_206" data-name="Trazado 206" d="M3475.547,963.847a5.7,5.7,0,0,0-4.182-1.763H3463v-.1a4.522,4.522,0,0,0-1.361-3.275,4.61,4.61,0,0,0-3.274-1.36h-15.114a4.643,4.643,0,0,0-4.685,4.635v.1h-8.313a5.7,5.7,0,0,0-4.181,1.763,5.989,5.989,0,0,0-1.763,4.181v25.089a5.7,5.7,0,0,0,1.763,4.181,5.989,5.989,0,0,0,4.181,1.764h41.109a5.7,5.7,0,0,0,4.182-1.764,5.989,5.989,0,0,0,1.763-4.181V968.028A5.7,5.7,0,0,0,3475.547,963.847Zm-.857,29.27h-.05a3.269,3.269,0,0,1-3.275,3.275h-41.109a3.269,3.269,0,0,1-3.274-3.275V968.028a3.267,3.267,0,0,1,3.274-3.274h9.724a1.355,1.355,0,0,0,1.36-1.361v-1.46a1.9,1.9,0,0,1,1.965-1.965h15.063a1.9,1.9,0,0,1,1.965,1.965v1.46a1.355,1.355,0,0,0,1.36,1.361h9.723a3.267,3.267,0,0,1,3.274,3.274Z" fill="#fff"/>
          <path id="Trazado_207" data-name="Trazado 207" d="M3450.811,968.179a12.4,12.4,0,0,0-8.766,21.159,12.393,12.393,0,0,0,21.159-8.765,12.385,12.385,0,0,0-12.393-12.394Zm6.851,19.295a9.728,9.728,0,0,1-13.7,0,9.63,9.63,0,0,1-2.821-6.851,9.848,9.848,0,0,1,2.821-6.851,9.631,9.631,0,0,1,6.852-2.822,9.845,9.845,0,0,1,6.851,2.822,9.627,9.627,0,0,1,2.822,6.851A9.424,9.424,0,0,1,3457.662,987.474Z" fill="#fff"/>
          <circle id="Elipse_13" data-name="Elipse 13" cx="2.469" cy="2.469" r="2.469" transform="translate(3466.277 968.129)" fill="#fff"/>
        </g>
      </g>
    </g>
  </g>
</svg>
