<svg xmlns="http://www.w3.org/2000/svg" width="94.604" height="94.604" viewBox="0 0 94.604 94.604">
  <g id="Grupo_282" data-name="Grupo 282" transform="translate(-3273.258 -931.819)">
    <circle id="Elipse_11" data-name="Elipse 11" cx="47.302" cy="47.302" r="47.302" transform="translate(3273.258 931.819)" fill="#e12144"/>
    <g id="Grupo_136" data-name="Grupo 136">
      <path id="Trazado_208" data-name="Trazado 208" d="M3342.971,966.493,3326.676,950.2a1.224,1.224,0,0,0-.866-.359h-22.962a5.063,5.063,0,0,0-5.057,5.057v44.829a5.063,5.063,0,0,0,5.057,5.057h35.425a5.063,5.063,0,0,0,5.057-5.057V967.359A1.222,1.222,0,0,0,3342.971,966.493Zm-15.937-12.474,12.116,12.115h-9.507a2.612,2.612,0,0,1-2.609-2.609v-9.506Zm13.847,45.706a2.612,2.612,0,0,1-2.608,2.609h-35.425a2.612,2.612,0,0,1-2.608-2.609V954.9a2.612,2.612,0,0,1,2.608-2.609h21.738v11.239a5.063,5.063,0,0,0,5.057,5.057h11.238Z" fill="#fff"/>
    </g>
  </g>
</svg>
