<svg xmlns="http://www.w3.org/2000/svg" width="94.604" height="94.604" viewBox="0 0 94.604 94.604">
  <g id="Grupo_281" data-name="Grupo 281" transform="translate(-3150.199 -931.819)">
    <circle id="Elipse_10" data-name="Elipse 10" cx="47.302" cy="47.302" r="47.302" transform="translate(3150.199 931.819)" fill="#e12144"/>
    <g id="Grupo_142" data-name="Grupo 142">
      <g id="Grupo_139" data-name="Grupo 139">
        <g id="Grupo_138" data-name="Grupo 138">
          <path id="Trazado_209" data-name="Trazado 209" d="M3214.113,958.567h-32.224a5.538,5.538,0,0,0-5.531,5.532v32.223a5.538,5.538,0,0,0,5.531,5.531h32.224a5.538,5.538,0,0,0,5.531-5.531V964.1A5.538,5.538,0,0,0,3214.113,958.567Zm2.981,37.755a2.984,2.984,0,0,1-2.981,2.981h-32.224a2.984,2.984,0,0,1-2.981-2.981v-4.651l8.391-7.139a.824.824,0,0,1,1.062-.007l5.256,4.365a1.276,1.276,0,0,0,1.717-.08l12.489-12.508a.826.826,0,0,1,1.225.063l8.046,9.907v10.05Zm0-14.094-6.067-7.471a3.375,3.375,0,0,0-5.008-.257l-11.667,11.686-4.362-3.622a3.369,3.369,0,0,0-4.343.026l-6.739,5.734V964.1a2.984,2.984,0,0,1,2.981-2.982h32.224a2.984,2.984,0,0,1,2.981,2.982Z" fill="#fff"/>
        </g>
      </g>
      <g id="Grupo_141" data-name="Grupo 141">
        <g id="Grupo_140" data-name="Grupo 140">
          <path id="Trazado_210" data-name="Trazado 210" d="M3189.984,963.893a6.147,6.147,0,1,0,6.148,6.147A6.155,6.155,0,0,0,3189.984,963.893Zm0,9.745a3.6,3.6,0,1,1,3.6-3.6A3.6,3.6,0,0,1,3189.984,973.638Z" fill="#fff"/>
        </g>
      </g>
    </g>
  </g>
</svg>
